# File created by Blade
# Date/Time:  Wed Jan 21 16:27:40 2015
# Frame Rate: 120.000 fps
#------------------------------------------------------
:FULLY-SPECIFIED
:DEGREES
1302
root 19.426447 12.488709 -14.429739 -178.079756 9.839598 -191.514072
Spine 62.607888 -16.679089 0.419512
Head 5.145395 -7.267460 -8.245662
LeftShoulder 17.681864 -37.133849 0.683128
LeftArm 58.394997 47.120660 -46.273985
LeftForeArm 28.289958 -0.000000 10.875000
LeftHand -4.263222 -0.000000 8.267666
LeftHandThumb1 -26.253704 0.000000 33.147579
RightShoulder 5.117591 -13.438705 7.414354
RightArm 40.964091 -12.017956 34.994326
RightForeArm -11.645076 -0.000000 37.785795
RightHand -19.283022 -0.000000 -21.599836
RightHandThumb1 -24.326973 -0.000000 -32.862282
LeftUpLeg -5.472641 13.611148 54.714440
LeftLeg 17.036093 -0.000000 -0.000000
LeftFoot 8.640533 37.718250 4.385737
LeftToeBase 18.138464 -0.000000 -0.000000
RightUpLeg -56.591631 -36.495642 -43.512289
RightLeg 11.916777 -0.000000 -0.000000
RightFoot 36.544115 -26.971321 -17.027120
RightToeBase 13.604355 -0.000000 -0.000000
1303
root 19.427493 12.454594 -14.397293 -178.271615 9.853609 -191.687080
Spine 62.679038 -16.444245 0.233936
Head 5.044817 -7.201123 -8.140472
LeftShoulder 17.659523 -37.145520 0.712723
LeftArm 58.441009 47.119307 -46.215731
LeftForeArm 28.292372 -0.000000 11.032593
LeftHand -4.267700 0.000000 8.089222
LeftHandThumb1 -26.253704 0.000000 33.147579
RightShoulder 5.083220 -13.399013 7.417039
RightArm 40.557663 -12.123312 35.474709
RightForeArm -13.144846 -0.000000 37.786480
RightHand -18.508831 -0.000000 -22.411692
RightHandThumb1 -24.326973 -0.000000 -32.862282
LeftUpLeg -5.473023 13.609914 54.609291
LeftLeg 17.134643 -0.000000 -0.000000
LeftFoot 8.280761 37.611533 4.182595
LeftToeBase 18.167722 -0.000000 -0.000000
RightUpLeg -56.810606 -36.680932 -43.327809
RightLeg 11.877706 -0.000000 -0.000000
RightFoot 36.586982 -26.877333 -16.975845
RightToeBase 13.829577 -0.000000 -0.000000
1304
root 19.427181 12.419804 -14.366020 -178.466801 9.860391 -191.856408
Spine 62.752004 -16.218570 0.085083
Head 4.938624 -7.160592 -8.081930
LeftShoulder 17.667656 -37.218094 0.697028
LeftArm 58.374924 47.145853 -46.266832
LeftForeArm 28.393399 0.000000 11.220170
LeftHand -4.279245 0.000000 7.929127
LeftHandThumb1 -26.253704 0.000000 33.147579
RightShoulder 5.056712 -13.388130 7.413856
RightArm 40.123100 -12.206925 35.986985
RightForeArm -14.730033 0.000000 37.782842
RightHand -18.273948 -0.000000 -22.039485
RightHandThumb1 -24.326973 -0.000000 -32.862282
LeftUpLeg -5.471566 13.587569 54.506551
LeftLeg 17.221067 -0.000000 -0.000000
LeftFoot 7.969789 37.590082 4.037004
LeftToeBase 17.765649 -0.000000 -0.000000
RightUpLeg -56.929896 -36.784823 -43.291804
RightLeg 11.841975 -0.000000 -0.000000
RightFoot 36.674903 -26.893026 -16.928016
RightToeBase 14.242392 -0.000000 -0.000000
1305
root 19.428234 12.378315 -14.334399 -178.665815 9.854772 -192.034939
Spine 62.803846 -15.997136 -0.055987
Head 4.873777 -7.212672 -8.042103
LeftShoulder 17.633319 -37.225571 0.693240
LeftArm 58.344475 47.105234 -46.342270
LeftForeArm 28.527364 -0.000000 11.402822
LeftHand -4.231146 -0.000000 7.654609
LeftHandThumb1 -26.253704 0.000000 33.147579
RightShoulder 5.048363 -13.333422 7.435409
RightArm 39.646291 -12.395599 36.462656
RightForeArm -16.427130 -0.000000 37.662672
RightHand -18.422742 -0.000000 -22.454463
RightHandThumb1 -24.326973 -0.000000 -32.862282
LeftUpLeg -5.478352 13.541152 54.404078
LeftLeg 17.309855 -0.000000 -0.000000
LeftFoot 7.775380 37.483889 3.938737
LeftToeBase 18.367689 -0.000000 -0.000000
RightUpLeg -57.150413 -36.988470 -43.116294
RightLeg 11.818160 -0.000000 -0.000000
RightFoot 36.765450 -26.748265 -16.877283
RightToeBase 14.896684 -0.000000 -0.000000
1306
root 19.429864 12.335369 -14.300296 -178.867985 9.853412 -192.190102
Spine 62.824393 -15.652990 0.046543
Head 4.752724 -7.360621 -7.971031
LeftShoulder 17.844854 -37.165535 0.568014
LeftArm 58.377768 47.016144 -46.376673
LeftForeArm 28.638775 -0.000000 11.706762
LeftHand -4.319485 -0.000000 7.503666
LeftHandThumb1 -26.253704 0.000000 33.147579
RightShoulder 4.798796 -13.354020 7.513079
RightArm 39.261092 -12.667866 36.775553
RightForeArm -18.018395 -0.000000 37.544098
RightHand -18.482113 -0.000000 -23.804300
RightHandThumb1 -24.326973 -0.000000 -32.862282
LeftUpLeg -5.481863 13.455870 54.331293
LeftLeg 17.408828 -0.000000 -0.000000
LeftFoot 7.714357 37.447412 3.943989
LeftToeBase 18.249355 -0.000000 -0.000000
RightUpLeg -57.334333 -37.141686 -42.967680
RightLeg 11.781584 -0.000000 -0.000000
RightFoot 36.894987 -26.567938 -16.920253
RightToeBase 15.784695 -0.000000 -0.000000
1307
root 19.433936 12.285931 -14.266511 -179.113738 9.834557 -192.379741
Spine 62.985999 -15.503630 -0.230446
Head 4.538945 -7.157617 -7.956055
LeftShoulder 17.584026 -37.312367 0.701249
LeftArm 58.124012 46.992380 -46.732474
LeftForeArm 28.868080 -0.000000 11.943244
LeftHand -4.245211 -0.000000 7.248005
LeftHandThumb1 -26.253704 0.000000 33.147579
RightShoulder 4.947613 -13.459865 7.525941
RightArm 38.853236 -12.822298 37.138887
RightForeArm -19.882696 -0.000000 37.513004
RightHand -18.402270 -0.000000 -24.077191
RightHandThumb1 -24.326973 -0.000000 -32.862282
LeftUpLeg -5.478171 13.278510 54.232793
LeftLeg 17.542070 -0.000000 -0.000000
LeftFoot 7.666387 37.379134 3.924942
LeftToeBase 18.088551 -0.000000 -0.000000
RightUpLeg -57.414415 -37.225065 -42.992536
RightLeg 11.767847 -0.000000 -0.000000
RightFoot 37.063321 -26.547631 -16.838912
RightToeBase 16.369601 -0.000000 -0.000000
1308
root 19.433953 12.230516 -14.226888 -179.319495 9.843391 -192.614251
Spine 63.018293 -15.228061 -0.360512
Head 4.413557 -7.137243 -7.925060
LeftShoulder 17.481099 -37.279997 0.743778
LeftArm 58.231682 46.995507 -46.652926
LeftForeArm 28.892045 -0.000000 12.314873
LeftHand -4.269090 -0.000000 7.074896
LeftHandThumb1 -26.253704 0.000000 33.147579
RightShoulder 4.997488 -13.478659 7.606690
RightArm 38.265603 -13.088665 37.470446
RightForeArm -21.806515 -0.000000 37.420658
RightHand -18.074701 0.000000 -25.030790
RightHandThumb1 -24.326973 -0.000000 -32.862282
LeftUpLeg -5.508040 13.181885 54.092348
LeftLeg 17.688005 -0.000000 -0.000000
LeftFoot 7.663329 37.354976 3.934578
LeftToeBase 18.000706 -0.000000 -0.000000
RightUpLeg -57.727214 -37.443673 -42.804575
RightLeg 11.753209 -0.000000 -0.000000
RightFoot 37.237256 -26.383614 -16.725816
RightToeBase 16.842457 -0.000000 -0.000000
1309
root 19.432200 12.172447 -14.187800 -179.539494 9.823581 -192.828349
Spine 63.079500 -14.981792 -0.398197
Head 4.221517 -7.186379 -7.955382
LeftShoulder 17.459722 -37.362866 0.764125
LeftArm 57.937595 46.910304 -47.051410
LeftForeArm 29.118128 -0.000000 12.778950
LeftHand -4.281566 -0.000000 6.853373
LeftHandThumb1 -26.253704 0.000000 33.147579
RightShoulder 4.949973 -13.655287 7.709467
RightArm 37.965597 -13.482960 37.517389
RightForeArm -23.742294 -0.000000 37.076438
RightHand -17.740235 -0.000000 -27.643110
RightHandThumb1 -24.326973 -0.000000 -32.862282
LeftUpLeg -5.573964 13.080820 53.974699
LeftLeg 17.872767 -0.000000 -0.000000
LeftFoot 7.643372 37.323790 3.920665
LeftToeBase 17.972492 -0.000000 -0.000000
RightUpLeg -58.012541 -37.690299 -42.613384
RightLeg 11.749587 -0.000000 -0.000000
RightFoot 37.399921 -26.118450 -16.595168
RightToeBase 17.670155 -0.000000 -0.000000
1310
root 19.434436 12.108303 -14.146938 -179.785863 9.805845 -192.993910
Spine 63.167259 -14.735783 -0.356421
Head 4.053656 -7.287516 -8.033998
LeftShoulder 17.394341 -37.332427 0.809563
LeftArm 57.946236 46.809765 -47.159826
LeftForeArm 29.194210 -0.000000 13.254034
LeftHand -4.251728 -0.000000 6.910516
LeftHandThumb1 -26.253704 0.000000 33.147579
RightShoulder 4.914270 -13.788003 7.836342
RightArm 37.593586 -13.607809 37.686952
RightForeArm -26.126793 -0.000000 36.588368
RightHand -13.828397 -0.000000 -25.400538
RightHandThumb1 -24.326973 -0.000000 -32.862282
LeftUpLeg -5.678971 13.117378 53.936449
LeftLeg 18.168575 -0.000000 -0.000000
LeftFoot 7.562110 37.150961 3.776947
LeftToeBase 17.922333 -0.000000 -0.000000
RightUpLeg -58.172445 -37.805326 -42.539227
RightLeg 11.723523 -0.000000 -0.000000
RightFoot 37.652833 -25.954714 -16.548035
RightToeBase 18.053942 -0.000000 -0.000000
1311
root 19.439989 12.037416 -14.102297 -180.013235 9.747556 -193.120282
Spine 63.239468 -14.541960 -0.265903
Head 3.833931 -7.273310 -8.072623
LeftShoulder 17.278683 -37.291078 0.900995
LeftArm 57.984820 46.703072 -47.286559
LeftForeArm 29.312129 0.000000 13.717261
LeftHand -4.213340 -0.000000 6.928078
LeftHandThumb1 -26.253704 0.000000 33.147579
RightShoulder 4.890981 -13.790483 7.880301
RightArm 37.187811 -14.092645 37.917869
RightForeArm -28.278930 -0.000000 35.976437
RightHand -13.765698 -0.000000 -27.639572
RightHandThumb1 -24.326973 -0.000000 -32.862282
LeftUpLeg -5.827677 13.009544 53.935084
LeftLeg 18.457656 -0.000000 -0.000000
LeftFoot 7.579138 37.052646 3.704965
LeftToeBase 17.916829 -0.000000 -0.000000
RightUpLeg -58.268394 -37.897398 -42.556440
RightLeg 11.772374 -0.000000 -0.000000
RightFoot 37.709722 -25.779504 -16.336357
RightToeBase 18.860861 -0.000000 -0.000000
